<?xml version="1.0" encoding="UTF-8"?>
<svg id="Layer_1" xmlns="http://www.w3.org/2000/svg" version="1.1" xmlns:xlink="http://www.w3.org/1999/xlink" viewBox="0 0 1634 187.9">
  <!-- Generator: Adobe Illustrator 30.0.0, SVG Export Plug-In . SVG Version: 2.1.1 Build 123)  -->
  <defs>
    <style>
      .st0 {
        clip-path: url(#clippath-6);
      }

      .st1 {
        clip-path: url(#clippath-7);
      }

      .st2 {
        clip-path: url(#clippath-4);
      }

      .st3 {
        clip-path: url(#clippath-9);
      }

      .st4 {
        clip-path: url(#clippath-10);
      }

      .st5 {
        fill: #fff;
      }

      .st6 {
        clip-path: url(#clippath-11);
      }

      .st7 {
        fill: none;
      }

      .st8 {
        clip-path: url(#clippath-1);
      }

      .st9 {
        clip-path: url(#clippath-5);
      }

      .st10 {
        clip-path: url(#clippath-8);
      }

      .st11 {
        clip-path: url(#clippath-3);
      }

      .st12 {
        clip-path: url(#clippath-2);
      }

      .st13 {
        clip-path: url(#clippath);
      }
    </style>
    <clipPath id="clippath">
      <rect class="st7" x="881.8" y="111.2" width="85.2" height="43.3"/>
    </clipPath>
    <clipPath id="clippath-1">
      <path class="st7" d="M966.8,154.6c0-23.6-19.4-43.3-42.5-43.3s-42.5,19.7-42.5,43.3h85Z"/>
    </clipPath>
    <clipPath id="clippath-2">
      <rect class="st7" x="881.3" y="110.3" width="86.7" height="45.3"/>
    </clipPath>
    <clipPath id="clippath-3">
      <rect class="st7" x="881.8" y="111.2" width="85.1" height="43.3"/>
    </clipPath>
    <clipPath id="clippath-4">
      <path class="st7" d="M966.8,154.6c0-23.6-19.4-43.3-42.5-43.3s-42.5,19.7-42.5,43.3h85Z"/>
    </clipPath>
    <clipPath id="clippath-5">
      <rect class="st7" x="680.5" y="111.2" width="85.2" height="43.3"/>
    </clipPath>
    <clipPath id="clippath-6">
      <path class="st7" d="M765.5,154.6c0-23.6-19.4-43.3-42.5-43.3s-42.5,19.7-42.5,43.3h85Z"/>
    </clipPath>
    <clipPath id="clippath-7">
      <rect class="st7" x="680" y="110.3" width="86.7" height="45.3"/>
    </clipPath>
    <clipPath id="clippath-8">
      <rect class="st7" x="680.5" y="111.2" width="85.2" height="43.3"/>
    </clipPath>
    <clipPath id="clippath-9">
      <path class="st7" d="M765.5,154.6c0-23.6-19.4-43.3-42.5-43.3s-42.5,19.7-42.5,43.3h85Z"/>
    </clipPath>
    <clipPath id="clippath-10">
      <rect class="st7" x="776" y="-111.1" width="770.7" height="408"/>
    </clipPath>
    <clipPath id="clippath-11">
      <rect class="st7" x="106.7" y="-111.1" width="718.7" height="408"/>
    </clipPath>
  </defs>
  <g class="st13">
    <g class="st8">
      <g class="st12">
        <g class="st11">
          <g class="st2">
            <path d="M881.8,111.2h85v43.3h-85v-43.3Z"/>
          </g>
        </g>
      </g>
    </g>
  </g>
  <g class="st9">
    <g class="st0">
      <g class="st1">
        <g class="st10">
          <g class="st3">
            <path d="M680.5,111.2h85v43.3h-85v-43.3Z"/>
          </g>
        </g>
      </g>
    </g>
  </g>
  <g class="st4">
    <g>
      <path class="st5" d="M1534.2,54.8v32.1h-72.6v-32.1h72.6Z"/>
      <path class="st5" d="M1482.4,54.8v32.1h-72.6v-32.1h72.6Z"/>
      <path class="st5" d="M1430.6,54.8v32.1h-72.6v-32.1h72.6Z"/>
      <path class="st5" d="M1378.8,54.8v32.1h-72.6v-32.1h72.6Z"/>
      <path class="st5" d="M1326.9,54.8v32.1h-72.6v-32.1h72.6Z"/>
      <path class="st5" d="M1275.1,54.8v32.1h-72.6v-32.1h72.6Z"/>
      <path class="st5" d="M1223.3,54.8v32.1h-72.6v-32.1h72.6Z"/>
      <path class="st5" d="M1171.5,54.8v32.1h-72.6v-32.1h72.6Z"/>
      <path class="st5" d="M1119.7,54.8v32.1h-72.6v-32.1h72.6Z"/>
      <path class="st5" d="M1067.9,54.8v32.1h-72.6v-32.1h72.6Z"/>
      <path class="st5" d="M923.7,1.7c14.4,0,27.4,2.4,39,7.2s21.6,11.5,30,20c8.4,8.6,14.8,18.5,19.4,29.8,4.5,11.3,6.8,23.4,6.8,36.4s-2.3,25.1-6.8,36.4c-4.5,11.3-11,21.2-19.3,29.6-8.3,8.5-18.3,15.1-30,19.8-11.7,4.7-24.8,7.1-39.1,7.1s-27.1-2.4-38.9-7.1c-11.7-4.7-21.7-11.3-30-19.8-8.3-8.5-14.7-18.4-19.4-29.8-4.6-11.4-6.9-23.5-6.9-36.3s2.3-25.1,6.9-36.4c4.6-11.3,11.1-21.2,19.4-29.8,8.3-8.5,18.3-15.2,30-20,11.7-4.8,24.7-7.2,38.9-7.2ZM923.7,38.3c-7.5,0-14.5,1.4-20.9,4.2-6.4,2.8-11.9,6.8-16.5,11.9-4.6,5.1-8.2,11.2-10.8,18.1-2.6,6.9-3.9,14.4-3.9,22.5s1.3,15.5,3.9,22.3c2.6,6.8,6.1,12.8,10.8,18,4.6,5.1,10.1,9.1,16.5,11.9,6.4,2.8,13.4,4.2,20.9,4.2s14.7-1.4,21.1-4.2c6.3-2.8,11.8-6.8,16.5-11.9,4.7-5.1,8.3-11.2,10.8-18.1,2.5-6.9,3.7-14.3,3.7-22.2s-1.2-15.5-3.7-22.5c-2.5-6.9-6.1-12.9-10.8-18.1-4.7-5.1-10.2-9.1-16.5-11.9-6.3-2.8-13.4-4.2-21.1-4.2Z"/>
      <path class="st5" d="M852.4,54.8v32.1h-72.6v-32.1h72.6Z"/>
    </g>
  </g>
  <g class="st6">
    <g>
      <path class="st5" d="M721.7,1.7c14.4,0,27.4,2.4,39,7.2s21.6,11.5,30,20c8.4,8.6,14.8,18.5,19.4,29.8,4.5,11.3,6.8,23.4,6.8,36.4s-2.3,25.1-6.8,36.4c-4.5,11.3-11,21.2-19.3,29.6-8.3,8.5-18.3,15.1-30,19.8-11.7,4.7-24.8,7.1-39.1,7.1s-27.1-2.4-38.9-7.1c-11.7-4.7-21.7-11.3-30-19.8-8.3-8.5-14.7-18.4-19.4-29.8-4.6-11.4-6.9-23.5-6.9-36.3s2.3-25.1,6.9-36.4c4.6-11.3,11.1-21.2,19.4-29.8,8.3-8.5,18.3-15.2,30-20,11.7-4.8,24.7-7.2,38.9-7.2ZM721.7,38.3c-7.5,0-14.5,1.4-20.9,4.2-6.4,2.8-11.9,6.8-16.5,11.9-4.6,5.1-8.2,11.2-10.8,18.1-2.6,6.9-3.9,14.4-3.9,22.5s1.3,15.5,3.9,22.3c2.6,6.8,6.1,12.8,10.8,18,4.6,5.1,10.1,9.1,16.5,11.9,6.4,2.8,13.4,4.2,20.9,4.2s14.7-1.4,21.1-4.2c6.3-2.8,11.8-6.8,16.5-11.9,4.7-5.1,8.3-11.2,10.8-18.1,2.5-6.9,3.7-14.3,3.7-22.2s-1.2-15.5-3.7-22.5c-2.5-6.9-6.1-12.9-10.8-18.1-4.7-5.1-10.2-9.1-16.5-11.9-6.3-2.8-13.4-4.2-21.1-4.2Z"/>
      <path class="st5" d="M650.4,54.8v32.1h-72.6v-32.1h72.6Z"/>
      <path class="st5" d="M598.6,54.8v32.1h-72.6v-32.1h72.6Z"/>
      <path class="st5" d="M546.8,54.8v32.1h-72.6v-32.1h72.6Z"/>
      <path class="st5" d="M495,54.8v32.1h-72.6v-32.1h72.6Z"/>
      <path class="st5" d="M443.1,54.8v32.1h-72.6v-32.1h72.6Z"/>
      <path class="st5" d="M391.3,54.8v32.1h-72.6v-32.1h72.6Z"/>
      <path class="st5" d="M339.5,54.8v32.1h-72.6v-32.1h72.6Z"/>
      <path class="st5" d="M287.7,54.8v32.1h-72.6v-32.1h72.6Z"/>
      <path class="st5" d="M235.9,54.8v32.1h-72.6v-32.1h72.6Z"/>
      <path class="st5" d="M184.1,54.8v32.1h-72.6v-32.1h72.6Z"/>
    </g>
  </g>
  <path class="st5" d="M1534.2,86.8v-32.1h99.8v32.1s-99.8-.5-99.8,0Z"/>
  <path class="st5" d="M111.5,86.8v-32.1H0v32.3s111.5-.7,111.5-.2Z"/>
</svg>